HIERARCHY
ROOT hip
{
  OFFSET 0 0 0
  CHANNELS 6 Xposition Yposition Zposition Zrotation Yrotation Xrotation
  JOINT abdomen
  {
    OFFSET 0 20.6881 -0.73152
    CHANNELS 3 Zrotation Xrotation Yrotation
    JOINT chest
    {
      OFFSET 0 11.7043 -0.48768
      CHANNELS 3 Zrotation Xrotation Yrotation
      JOINT neck
      {
        OFFSET 0 22.1894 -2.19456
        CHANNELS 3 Zrotation Xrotation Yrotation
        JOINT head
        {
          OFFSET -0.24384 7.07133 1.2192
          CHANNELS 3 Zrotation Xrotation Yrotation
          JOINT leftEye
          {
            OFFSET 4.14528 8.04674 8.04672
            CHANNELS 3 Zrotation Xrotation Yrotation
            End Site
            {
              OFFSET 1 0 0
            }
          }
          JOINT rightEye
          {
            OFFSET -3.6576 8.04674 8.04672
            CHANNELS 3 Zrotation Xrotation Yrotation
            End Site
            {
              OFFSET 1 0 0
            }
          }
        }
      }
      JOINT rCollar
      {
        OFFSET -2.68224 19.2634 -4.8768
        CHANNELS 3 Zrotation Xrotation Yrotation
        JOINT rShldr
        {
          OFFSET -8.77824 -1.95073 1.46304
          CHANNELS 3 Zrotation Xrotation Yrotation
          JOINT rForeArm
          {
            OFFSET -28.1742 -1.7115 0.48768
            CHANNELS 3 Zrotation Xrotation Yrotation
            JOINT rHand
            {
              OFFSET -22.5879 0.773209 7.07136
              CHANNELS 3 Zrotation Xrotation Yrotation
              JOINT rThumb1
              {
                OFFSET -1.2192 -0.487915 3.41376
                CHANNELS 3 Zrotation Xrotation Yrotation
                JOINT rThumb2
                {
                  OFFSET -3.37035 -0.52449 3.41376
                  CHANNELS 3 Zrotation Xrotation Yrotation
                  End Site
                  {
                    OFFSET -1.78271 -1.18214 1.43049
                  }
                }
              }
              JOINT rIndex1
              {
                OFFSET -7.75947 0.938293 5.60832
                CHANNELS 3 Zrotation Xrotation Yrotation
                JOINT rIndex2
                {
                  OFFSET -2.54057 -0.884171 1.56538
                  CHANNELS 3 Zrotation Xrotation Yrotation
                  End Site
                  {
                    OFFSET -1.62519 -0.234802 1.16502
                  }
                }
              }
              JOINT rMid1
              {
                OFFSET -8.24714 1.18213 3.41376
                CHANNELS 3 Zrotation Xrotation Yrotation
                JOINT rMid2
                {
                  OFFSET -3.10165 -0.590103 1.0647
                  CHANNELS 3 Zrotation Xrotation Yrotation
                  End Site
                  {
                    OFFSET -2.48547 -0.328903 0.83742
                  }
                }
              }
              JOINT rRing1
              {
                OFFSET -8.82822 0.546677 1.51678
                CHANNELS 3 Zrotation Xrotation Yrotation
                JOINT rRing2
                {
                  OFFSET -2.60934 -0.819778 -0.0198488
                  CHANNELS 3 Zrotation Xrotation Yrotation
                  End Site
                  {
                    OFFSET -2.33842 -0.294052 0.168128
                  }
                }
              }
              JOINT rPinky1
              {
                OFFSET -8.27202 -0.0477905 -0.4584
                CHANNELS 3 Zrotation Xrotation Yrotation
                JOINT rPinky2
                {
                  OFFSET -1.82734 -0.647385 -0.700984
                  CHANNELS 3 Zrotation Xrotation Yrotation
                  End Site
                  {
                    OFFSET -1.69225 -0.51767 -0.607171
                  }
                }
              }
            }
          }
        }
      }
      JOINT lCollar
      {
        OFFSET 2.68224 19.2634 -4.8768
        CHANNELS 3 Zrotation Xrotation Yrotation
        JOINT lShldr
        {
          OFFSET 8.77824 -1.95073 1.46304
          CHANNELS 3 Zrotation Xrotation Yrotation
          JOINT lForeArm
          {
            OFFSET 28.1742 -1.7115 0.48768
            CHANNELS 3 Zrotation Xrotation Yrotation
            JOINT lHand
            {
              OFFSET 22.5879 0.773209 7.07136
              CHANNELS 3 Zrotation Xrotation Yrotation
              JOINT lThumb1
              {
                OFFSET 1.2192 -0.487915 3.41376
                CHANNELS 3 Zrotation Xrotation Yrotation
                JOINT lThumb2
                {
                  OFFSET 3.37035 -0.52449 3.41376
                  CHANNELS 3 Zrotation Xrotation Yrotation
                  End Site
                  {
                    OFFSET 1.78271 -1.18214 1.43049
                  }
                }
              }
              JOINT lIndex1
              {
                OFFSET 7.75947 0.938293 5.60832
                CHANNELS 3 Zrotation Xrotation Yrotation
                JOINT lIndex2
                {
                  OFFSET 2.54057 -0.884171 1.56538
                  CHANNELS 3 Zrotation Xrotation Yrotation
                  End Site
                  {
                    OFFSET 1.62519 -0.234802 1.16502
                  }
                }
              }
              JOINT lMid1
              {
                OFFSET 8.24714 1.18213 3.41376
                CHANNELS 3 Zrotation Xrotation Yrotation
                JOINT lMid2
                {
                  OFFSET 3.10165 -0.590103 1.0647
                  CHANNELS 3 Zrotation Xrotation Yrotation
                  End Site
                  {
                    OFFSET 2.48547 -0.328903 0.83742
                  }
                }
              }
              JOINT lRing1
              {
                OFFSET 8.82822 0.546677 1.51678
                CHANNELS 3 Zrotation Xrotation Yrotation
                JOINT lRing2
                {
                  OFFSET 2.60934 -0.819778 -0.0198488
                  CHANNELS 3 Zrotation Xrotation Yrotation
                  End Site
                  {
                    OFFSET 2.33842 -0.294052 0.168128
                  }
                }
              }
              JOINT lPinky1
              {
                OFFSET 8.27202 -0.0477905 -0.4584
                CHANNELS 3 Zrotation Xrotation Yrotation
                JOINT lPinky2
                {
                  OFFSET 1.82734 -0.647385 -0.700984
                  CHANNELS 3 Zrotation Xrotation Yrotation
                  End Site
                  {
                    OFFSET 1.69225 -0.51767 -0.607171
                  }
                }
              }
            }
          }
        }
      }
    }
  }
  JOINT rButtock
  {
    OFFSET -8.77824 4.35084 1.2192
    CHANNELS 3 Zrotation Xrotation Yrotation
    JOINT rThigh
    {
      OFFSET 0 -1.70687 -2.19456
      CHANNELS 3 Zrotation Xrotation Yrotation
      JOINT rShin
      {
        OFFSET 0 -36.8199 0.73152
        CHANNELS 3 Zrotation Xrotation Yrotation
        JOINT rFoot
        {
          OFFSET 0.73152 -45.1104 -5.12064
          CHANNELS 3 Zrotation Xrotation Yrotation
          End Site
          {
            OFFSET -1.1221 -3.69964 12.103
          }
        }
      }
    }
  }
  JOINT lButtock
  {
    OFFSET 8.77824 4.35084 1.2192
    CHANNELS 3 Zrotation Xrotation Yrotation
    JOINT lThigh
    {
      OFFSET 0 -1.70687 -2.19456
      CHANNELS 3 Zrotation Xrotation Yrotation
      JOINT lShin
      {
        OFFSET 0 -36.8199 0.73152
        CHANNELS 3 Zrotation Xrotation Yrotation
        JOINT lFoot
        {
          OFFSET -0.73152 -45.1104 -5.12064
          CHANNELS 3 Zrotation Xrotation Yrotation
          End Site
          {
            OFFSET 1.1221 -3.69964 12.103
          }
        }
      }
    }
  }
}
MOTION
Frames:	4
Frame Time:	0.03333
3.019118122756481 -11.711916327476501 1.6079872846603394 7.852086544036865 55.458778381347656 2.662034511566162 -15.526519775390625 19.851058959960938 -0.12691554427146912 8.6261625289917 -10.394770622253418 0.30052873492240906 -11.221918106079102 16.72722625732422 -15.724715232849121 19.3248291015625 -19.68204689025879 -26.978200912475586 0.3460865318775177 -0.03256690502166748 0.28359100222587585 0.05013849586248398 -0.30736610293388367 -0.2602649927139282 0.14142490923404694 0.581571638584137 -0.146731898188591 26.000551223754883 50.33157730102539 32.46649932861328 -27.961761474609375 -32.079010009765625 70.34175109863281 -1.8313016891479492 -36.038108825683594 -6.045320510864258 0.09983842074871063 0.21670931577682495 0.2230118364095688 -0.21285195648670197 0.25876498222351074 -0.267067015171051 -0.2045619785785675 -0.08862140774726868 0.012673920020461082 7.6081953048706055 5.522052764892578 0.340684175491333 -0.21468333899974823 -0.09953726828098297 -0.17289236187934875 3.094120740890503 0.8649329543113708 0.005598509684205055 0.15811938047409058 0.31682029366493225 -0.22023111581802368 10.297173500061035 0.6442691087722778 -0.39090561866760254 -0.06052015349268913 0.18130812048912048 0.1721053272485733 2.153757095336914 -0.8518431782722473 -0.07327143102884293 0.18540212512016296 0.15692436695098877 0.3218487799167633 -11.823033332824707 37.80844497680664 -76.69865417480469 25.638769149780273 -46.66456985473633 -97.04322814941406 0.1065739244222641 -21.69390869140625 3.0285489559173584 0.3435284197330475 0.47450345754623413 0.44658151268959045 -0.16268622875213623 0.09481987357139587 -0.3029022216796875 -0.10788265615701675 -0.05117735639214516 0.09987083822488785 -7.651713848114014 5.682154655456543 -0.44485950469970703 0.5185860991477966 0.5429041981697083 0.0957825779914856 -3.0824148654937744 1.3528951406478882 0.017952295020222664 -0.09332944452762604 0.1865512877702713 -0.035402677953243256 -10.612659454345703 0.7748569846153259 0.07598870992660522 -0.05249214172363281 -0.027908693999052048 -0.08453382551670074 -2.260359525680542 -0.27360281348228455 0.33870476484298706 -0.2179320752620697 0.3485390543937683 0.17986425757408142 -50.6102180480957 -45.03789138793945 -26.787250518798828 -1.3322542905807495 46.05482482910156 1.257013201713562 -0.275780588388443 6.683265686035156 2.242921829223633 0.05630876496434212 0.19113187491893768 0.33024176955223083 23.946731567382812 -10.555716514587402 12.966239929199219 1.012148141860962 49.20612335205078 -1.9974193572998047 8.578409194946289 -15.584120750427246 17.542953491210938
3.0572865158319473 -11.652986705303192 1.4529098756611347 6.3448710441589355 55.72491455078125 2.2607078552246094 -13.899186134338379 19.795642852783203 -1.5927475690841675 8.775430679321289 -10.814363479614258 -0.15811464190483093 -10.831226348876953 16.364118576049805 -15.418927192687988 18.341632843017578 -20.283191680908203 -26.385604858398438 0.23039622604846954 0.0983344316482544 0.08508320152759552 0.09004677087068558 -0.36314472556114197 -0.17719368636608124 0.172021746635437 0.8101077079772949 -0.2733963131904602 28.979473114013672 48.08151626586914 29.964920043945312 -28.292097091674805 -33.47297286987305 71.9041976928711 -2.5340723991394043 -40.5787467956543 -7.322325229644775 0.29088932275772095 0.10961225628852844 0.20098932087421417 -0.30844107270240784 0.29036784172058105 -0.3912419080734253 -0.2797043025493622 -0.2402457296848297 0.03332297503948212 7.520102024078369 5.5284037590026855 0.10291902720928192 -0.1135450080037117 -0.09546808898448944 -0.3121432065963745 3.036409854888916 0.7847291231155396 0.07943753898143768 0.3049328923225403 0.37259045243263245 -0.29065999388694763 10.187883377075195 0.6284559965133667 -0.44680237770080566 -0.05212222784757614 0.22237174212932587 0.1910744309425354 2.2878148555755615 -0.6943473815917969 -0.035395845770835876 0.30047792196273804 0.214126318693161 0.54827481508255 -8.689505577087402 31.905481338500977 -80.069091796875 25.916589736938477 -45.633155822753906 -94.86085510253906 -0.3222489655017853 -12.979260444641113 1.6601322889328003 0.4094989001750946 0.5425790548324585 0.3494674265384674 -0.33226174116134644 0.15879620611667633 0.05353624001145363 -0.3180006444454193 -0.07586853951215744 0.37714534997940063 -7.817785263061523 5.650050163269043 -0.3402056097984314 0.5143027901649475 0.5820014476776123 0.17564082145690918 -3.094935655593872 1.3709157705307007 0.052948907017707825 -0.27002450823783875 0.2667853534221649 -0.02672913856804371 -10.640297889709473 0.7358456254005432 0.00959076825529337 -0.07026849687099457 0.03129381313920021 -0.2829030454158783 -2.189605712890625 -0.40956011414527893 0.04185188561677933 -0.48966726660728455 0.3903362452983856 0.22750630974769592 -48.64434814453125 -44.21868133544922 -25.597396850585938 -1.3853472471237183 46.45724105834961 1.4850512742996216 -0.5693255066871643 4.573868274688721 2.2295944690704346 0.1936962753534317 0.43743544816970825 0.4421406686306 23.654756546020508 -11.320269584655762 13.23413372039795 0.9034847021102905 49.36711502075195 -1.796257734298706 8.041287422180176 -12.867806434631348 16.650108337402344
3.139696829020977 -11.927582323551178 1.3127012178301811 5.562488555908203 54.59229278564453 1.7862789630889893 -13.80501937866211 20.17928123474121 -1.9477918148040771 8.836901664733887 -10.86391830444336 -0.17919747531414032 -11.372308731079102 17.36773109436035 -15.758628845214844 18.360084533691406 -21.01275062561035 -27.87112808227539 0.18760031461715698 0.040663693100214005 -0.23346303403377533 -0.008027440868318081 -0.5815927386283875 -0.1256217360496521 0.2098253071308136 0.6725665926933289 -0.11097053438425064 30.81228256225586 44.42452621459961 30.114913940429688 -28.23220443725586 -33.65594482421875 73.07794952392578 -3.4027953147888184 -45.85444259643555 -8.733121871948242 0.600577175617218 -0.27266329526901245 0.03035350888967514 -0.4000152349472046 0.09243054687976837 0.01169188879430294 -0.3798467814922333 -0.19347842037677765 -0.07160652428865433 7.654746055603027 5.528718948364258 0.13478301465511322 -0.11755257844924927 -0.18993733823299408 -0.1237218901515007 3.1974334716796875 0.5830513834953308 0.08634793758392334 0.2260705977678299 0.1629125326871872 -0.4104623794555664 10.159852027893066 0.5382494330406189 -0.37068861722946167 -0.020676264539361 0.33667489886283875 0.27965086698532104 2.512476682662964 -1.0123339891433716 -0.149539515376091 0.24500100314617157 0.12479224801063538 0.24579524993896484 -5.487018585205078 20.8248348236084 -83.80855560302734 26.170658111572266 -45.24215316772461 -94.33537292480469 -0.19107510149478912 -3.6594643592834473 0.342153936624527 0.606403112411499 0.22489984333515167 0.09448562562465668 -0.020071296021342278 0.03994723781943321 0.17944218218326569 0.010653589852154255 0.07604409754276276 0.2736096978187561 -8.181485176086426 5.412022113800049 -0.26292920112609863 0.843062162399292 0.4553641080856323 0.07347946614027023 -2.946737051010132 1.2211458683013916 -0.1536223590373993 -0.2978542745113373 0.15809501707553864 0.2995808720588684 -10.48299789428711 0.6988520622253418 0.09904762357473373 -0.08976391702890396 -0.17887285351753235 -0.2424292266368866 -2.214142084121704 -0.6462130546569824 0.08861073851585388 -0.6907824277877808 0.47606784105300903 0.3884549140930176 -49.01169967651367 -42.77021408081055 -23.663469314575195 -1.1003592014312744 46.142303466796875 1.3457142114639282 -0.13547077775001526 4.411515235900879 4.0594892501831055 0.14467063546180725 0.4057835340499878 0.06363768875598907 25.5340518951416 -10.247257232666016 12.142600059509277 0.879775881767273 50.133853912353516 -1.9137822389602661 7.7126593589782715 -11.257776260375977 18.254257202148438
3.238512761890888 -12.030377984046936 1.1632855981588364 5.995082378387451 54.4448127746582 3.3884212970733643 -12.337618827819824 21.21169662475586 -2.308861494064331 8.60589599609375 -10.26567554473877 -0.3171449899673462 -11.15920639038086 18.360332489013672 -14.9813871383667 18.410655975341797 -21.579193115234375 -26.68124008178711 0.18814817070960999 -0.07049139589071274 -0.21625155210494995 -0.09392586350440979 -0.31736281514167786 0.11104525625705719 0.20082876086235046 0.3230029046535492 -0.10634002834558487 33.74516677856445 41.02896499633789 29.586193084716797 -28.115215301513672 -35.391727447509766 76.20094299316406 -4.105449676513672 -49.79454040527344 -9.674144744873047 0.3397574722766876 -0.49335259199142456 0.07899366319179535 -0.43722522258758545 0.19356182217597961 0.2882241904735565 -0.4845656156539917 -0.2663280963897705 -0.17417579889297485 7.766574382781982 5.537802696228027 0.1414436250925064 0.09713572263717651 -0.23608459532260895 0.05075899884104729 3.2082862854003906 0.6483306288719177 0.09491760283708572 -0.0928894504904747 0.05059593543410301 -0.2886531949043274 10.544768333435059 0.6406756043434143 -0.47225525975227356 0.26351624727249146 0.4646751284599304 0.34705081582069397 2.1710119247436523 -1.2011646032333374 -0.33701300621032715 0.30302757024765015 -0.0875469446182251 0.17475199699401855 -5.596785545349121 11.389314651489258 -82.92018127441406 26.68707847595215 -43.56698226928711 -90.88057708740234 -0.07290104031562805 10.883646011352539 -1.754226565361023 0.4374494254589081 0.013995788991451263 0.08534589409828186 0.28489503264427185 0.0554104708135128 0.296298623085022 0.06000570207834244 0.019761785864830017 0.17265652120113373 -8.004115104675293 5.26346492767334 -0.18778075277805328 0.8321821689605713 0.3775211572647095 -0.14895105361938477 -2.953737258911133 1.0390030145645142 -0.27772530913352966 -0.2756141722202301 0.013997689820826054 0.21788759529590607 -10.377541542053223 0.9027985334396362 -0.19345201551914215 -0.1488180011510849 -0.2891314923763275 -0.40751853585243225 -2.3043432235717773 -0.8108986616134644 0.24142558872699738 -0.4655832350254059 0.31632184982299805 0.2756357491016388 -46.611751556396484 -43.03728485107422 -22.023122787475586 -0.6101376414299011 47.70450973510742 0.736214816570282 -0.1765023022890091 0.6782218217849731 4.689435005187988 0.06685806810855865 0.31756511330604553 -0.060204245150089264 27.49211311340332 -13.345033645629883 11.43515396118164 0.5674546360969543 52.430416107177734 -1.7945234775543213 6.3000993728637695 -8.831801414489746 16.965280532836914
